<svg width="800" height="800" viewBox="0 0 800 800" fill="none" xmlns="http://www.w3.org/2000/svg">
  <rect width="800" height="800" fill="#0F1117"/>
  <circle cx="530" cy="210" r="88" fill="#F4C24F"/>
  <path d="M0 505C121 443.667 257.833 413 410.5 413C563.167 413 693 460.5 800 555.5V800H0V505Z" fill="#171F2E"/>
  <path d="M0 603C138.667 536.333 272 503 400 503C528 503 661.333 535.333 800 600V800H0V603Z" fill="#23324A"/>
  <path d="M0 677C108.333 637.667 241.333 618 399 618C556.667 618 690.333 642.667 800 692V800H0V677Z" fill="#D4A017"/>
  <path d="M562 304C562 304 530.5 363 456 389C381.5 415 308 404 308 404C308 404 353 337 424.5 314C496 291 562 304 562 304Z" fill="#0F1117" fill-opacity="0.2"/>
</svg>
