<svg width="512" height="512" viewBox="0 0 512 512" fill="none" xmlns="http://www.w3.org/2000/svg">
  <rect width="512" height="512" rx="120" fill="#0F1117"/>
  <circle cx="256" cy="256" r="188" fill="url(#paint0_linear_1_2)" fill-opacity="0.16"/>
  <path d="M256 92C318.408 92 369 142.592 369 205V260C369 322.408 318.408 373 256 373C193.592 373 143 322.408 143 260V205C143 142.592 193.592 92 256 92Z" fill="#111826" stroke="#F3D27A" stroke-width="14"/>
  <path d="M256 123C300.183 123 336 158.817 336 203V258C336 302.183 300.183 338 256 338V123Z" fill="url(#paint1_linear_1_2)"/>
  <path d="M256 338C211.817 338 176 302.183 176 258V203C176 158.817 211.817 123 256 123V338Z" fill="#182130"/>
  <path d="M173 393C200.556 370.63 228.222 359.444 256 359.444C283.778 359.444 311.444 370.63 339 393" stroke="#00C853" stroke-width="18" stroke-linecap="round"/>
  <defs>
    <linearGradient id="paint0_linear_1_2" x1="88" y1="54" x2="433" y2="474" gradientUnits="userSpaceOnUse">
      <stop stop-color="#D4A017"/>
      <stop offset="1" stop-color="#00C853"/>
    </linearGradient>
    <linearGradient id="paint1_linear_1_2" x1="256" y1="123" x2="256" y2="338" gradientUnits="userSpaceOnUse">
      <stop stop-color="#F5D57D"/>
      <stop offset="1" stop-color="#D4A017"/>
    </linearGradient>
  </defs>
</svg>
