<svg width="192" height="192" viewBox="0 0 192 192" fill="none" xmlns="http://www.w3.org/2000/svg">
  <rect width="192" height="192" rx="44" fill="#0F1117"/>
  <circle cx="96" cy="96" r="72" fill="url(#paint0_linear_1_2)" fill-opacity="0.16"/>
  <path d="M96 34C119.748 34 139 53.2518 139 77V98C139 121.748 119.748 141 96 141C72.2518 141 53 121.748 53 98V77C53 53.2518 72.2518 34 96 34Z" fill="#111826" stroke="#F3D27A" stroke-width="5"/>
  <path d="M96 46C113.121 46 127 59.8792 127 77V98C127 115.121 113.121 129 96 129V46Z" fill="url(#paint1_linear_1_2)"/>
  <path d="M96 129C78.8792 129 65 115.121 65 98V77C65 59.8792 78.8792 46 96 46V129Z" fill="#182130"/>
  <path d="M69 143C79.6667 134.333 88.6667 130 96 130C103.333 130 112.333 134.333 123 143" stroke="#00C853" stroke-width="8" stroke-linecap="round"/>
  <defs>
    <linearGradient id="paint0_linear_1_2" x1="33" y1="18" x2="165" y2="180" gradientUnits="userSpaceOnUse">
      <stop stop-color="#D4A017"/>
      <stop offset="1" stop-color="#00C853"/>
    </linearGradient>
    <linearGradient id="paint1_linear_1_2" x1="96" y1="46" x2="96" y2="129" gradientUnits="userSpaceOnUse">
      <stop stop-color="#F5D57D"/>
      <stop offset="1" stop-color="#D4A017"/>
    </linearGradient>
  </defs>
</svg>
